<?xml version="1.0" standalone="no"?>
<!DOCTYPE svg PUBLIC "-//W3C//DTD SVG 20010904//EN"
 "http://www.w3.org/TR/2001/REC-SVG-20010904/DTD/svg10.dtd">
<svg version="1.0" xmlns="http://www.w3.org/2000/svg"
 width="2399.000000pt" height="2160.000000pt" viewBox="0 0 2399.000000 2160.000000"
 preserveAspectRatio="xMidYMid meet">

<g transform="translate(0.000000,2160.000000) scale(0.100000,-0.100000)"
fill="#000000" stroke="none">
<path d="M10999 18023 c-4055 -4095 -3879 -3915 -3947 -4026 -98 -158 -171
-371 -209 -609 -17 -108 -18 -380 -18 -5778 0 -4812 2 -5678 14 -5750 61 -371
260 -730 562 -1014 328 -308 715 -495 1189 -573 98 -16 417 -18 5010 -21 3168
-2 4953 1 5041 7 164 12 260 31 399 78 541 182 1030 702 1395 1483 40 85 782
1803 1649 3818 l1577 3663 -4 1547 c-3 1415 -5 1553 -20 1617 -78 319 -271
633 -564 915 -293 283 -600 469 -913 552 l-85 23 -3601 5 -3600 5 533 2535
c293 1394 538 2573 544 2620 16 120 6 391 -20 501 -44 193 -121 364 -223 500
-37 50 -245 253 -610 600 -304 288 -594 563 -644 612 l-91 87 -3364 -3397z"/>
<path d="M450 6585 l0 -6335 2115 0 2115 0 0 6335 0 6335 -2115 0 -2115 0 0
-6335z"/>
</g>
</svg>
