<?xml version="1.0" encoding="utf-8"?>
<!-- Svg Vector Icons : http://www.onlinewebfonts.com/icon -->
<!DOCTYPE svg PUBLIC "-//W3C//DTD SVG 1.1//EN" "http://www.w3.org/Graphics/SVG/1.1/DTD/svg11.dtd">
<svg version="1.1" xmlns="http://www.w3.org/2000/svg" xmlns:xlink="http://www.w3.org/1999/xlink" x="0px" y="0px" viewBox="0 0 1000 1000" enable-background="new 0 0 1000 1000" xml:space="preserve">
<metadata> Svg Vector Icons : http://www.onlinewebfonts.com/icon </metadata>
<g><g transform="translate(0.000000,511.000000) scale(0.100000,-0.100000)"><path d="M8028.3,4982.2c-555.7-98.5-1083.9-402-1462.2-841.5l-80.8-92.6l-262.1,86.7c-541.9,181.3-953.8,238.5-1572.6,222.7c-719.3-19.7-1229.7-143.9-1864.2-457.2C1391.1,3212.6,451.1,1910,230.4,353.1C193,89.1,198.9-563.2,242.2-839.1c76.9-502.5,208.9-930.2,425.7-1369.6c670-1367.6,1958.8-2311.6,3468.3-2544.1c315.3-49.3,969.6-49.3,1280.9-2c1026.7,159.6,1909.6,614.9,2632.8,1355.8C8716-2713.2,9137.7-1889.4,9299.3-957.3c53.2,315.3,72.9,871,41.4,1182.4c-84.7,829.6-413.8,1679-884.8,2291.9c-47.3,63.1-78.8,122.2-71,130.1c9.9,7.9,80.8,57.1,155.7,110.4c279.8,195.1,589.2,555.7,746.9,873c74.9,147.8,522.2,1284.9,506.4,1284.9c-7.9,0-273.9,21.7-593.2,49.3C8554.4,5019.6,8262.8,5023.6,8028.3,4982.2z M8846.1,4627.5c232.5-19.7,425.6-35.5,429.6-37.4c17.7-13.8-323.2-821.8-404-957.7c-118.2-201-390.2-490.7-581.3-622.7c-173.4-118.2-474.9-250.3-691.7-301.5c-236.5-57.1-451.3-67-804-39.4l-319.2,25.6l86.7,76.9c161.6,141.9,538,419.7,727.2,538c370.5,228.6,918.3,469,1168.6,514.3c104.4,17.7,179.3,110.4,163.6,203c-15.8,98.5-90.6,159.6-195.1,159.6c-45.3,0-187.2-35.5-315.3-78.8c-437.5-147.8-942-417.8-1371.6-731.1c-122.2-90.7-240.4-177.4-262.1-193.1c-35.5-25.6-35.5-23.7,3.9,78.8c305.4,786.3,900.6,1277,1665.2,1375.5C8353.4,4663,8386.9,4663,8846.1,4627.5z M5161,3987c289.7-25.6,620.8-92.6,900.6-185.2l222.7-70.9l-51.2-100.5c-27.6-55.2-118.3-270-199-476.9c-80.8-206.9-153.7-384.3-163.6-394.1c-7.9-7.9-72.9,7.9-143.8,35.5c-71,27.6-189.2,65-266,84.7c-116.3,27.6-147.8,27.6-199,5.9c-167.5-69-136-309.4,45.3-344.9c33.5-7.9,90.7-21.7,126.1-33.5l65-19.7l-118.2-124.2c-94.6-98.5-120.2-137.9-120.2-187.2c0-86.7,31.5-136,108.4-169.5c90.6-37.4,147.8-13.8,285.7,116.3c59.1,57.2,136,124.2,169.5,147.8l63.1,43.4l86.7-76.9c47.3-41.4,112.3-124.2,141.9-181.3c69-132,120.2-173.4,205-175.4c86.7,0,181.3,90.7,181.3,173.4c0,33.5-25.6,108.4-59.1,169.5c-55.2,108.4-55.2,110.4-13.8,102.5c23.6-5.9,181.3-19.7,348.8-33.5c451.3-33.5,748.8-3.9,1109.5,114.3l155.7,51.2l47.3-57.1c122.2-147.8,374.4-547.8,478.9-764.6c195.1-394.1,317.3-794.2,386.2-1263.2c45.3-289.7,45.3-847.4,2-1162.7c-130.1-938-538-1761.7-1192.2-2416c-614.8-612.9-1381.4-1009-2248.5-1164.7c-289.7-51.2-875-69-1186.3-37.4c-1643.5,173.4-3024.9,1275-3541.2,2831.8C370.3-320.8,553.6,1078.3,1280.8,2158.3C2130.1,3421.5,3625.8,4126.9,5161,3987z"/><path d="M3882,3257.9c-163.6-65-246.3-199-234.5-376.4c13.8-193.1,161.6-331.1,356.7-331.1c254.2,0,429.6,248.3,340.9,478.9C4274.2,3218.5,4055.4,3326.9,3882,3257.9z"/><path d="M2567.6,2690.3c-212.8-96.6-275.9-390.2-120.2-567.5c203-232.5,587.3-120.2,636.5,183.3c15.8,108.4-19.7,210.9-104.4,305.5C2873,2727.8,2717.4,2757.3,2567.6,2690.3z"/><path d="M7133.6,1768.1c-88.7-43.3-175.4-167.5-191.1-273.9c-35.5-234.5,191.1-453.3,423.7-411.9c279.8,51.2,398.1,402,203,607c-29.6,31.5-76.9,69-106.4,84.7C7391.7,1811.4,7216.3,1807.5,7133.6,1768.1z"/><path d="M8099.2,873.4c-145.8-57.1-238.4-191.1-238.4-340.9c0-216.8,147.8-366.5,364.6-366.5c307.4,0,471,356.7,270,595.1C8402.7,871.4,8223.4,922.7,8099.2,873.4z"/><path d="M6920.7,93c-141.9-90.6-201-252.2-153.7-413.8c63.1-212.8,291.7-317.3,492.7-224.6c360.6,163.6,244.4,691.7-149.8,691.7C7025.2,146.2,6983.8,134.4,6920.7,93z"/><path d="M8191.8-247.9c-319.3-98.5-374.4-510.4-90.7-670c197.1-110.4,429.6-29.6,518.3,181.3c53.2,130.1,23.7,279.8-74.9,386.2C8459.8-259.7,8300.2-214.4,8191.8-247.9z"/><path d="M7222.3-1138.6c-287.7-61.1-380.3-429.6-157.7-624.7c169.5-149.8,421.7-116.3,541.9,74.9c90.7,141.9,74.9,323.2-37.4,441.4C7472.5-1146.5,7358.2-1111,7222.3-1138.6z"/></g></g>
</svg>