<?xml version="1.0" standalone="no"?>
<!DOCTYPE svg PUBLIC "-//W3C//DTD SVG 20010904//EN"
 "http://www.w3.org/TR/2001/REC-SVG-20010904/DTD/svg10.dtd">
<svg version="1.0" xmlns="http://www.w3.org/2000/svg"
 width="2228.000000pt" height="1224.000000pt" viewBox="0 0 2228.000000 1224.000000"
 preserveAspectRatio="xMidYMid meet">
<metadata>
Created by potrace 1.16, written by Peter Selinger 2001-2019
</metadata>
<g transform="translate(0.000000,1224.000000) scale(0.100000,-0.100000)"
fill="#000000" stroke="none">
<path d="M2374 10386 c-17 -8 -40 -26 -52 -41 l-22 -28 0 -4248 0 -4247 25
-31 c53 -63 146 -63 199 0 l26 31 0 4289 0 4289 -72 0 c-40 -1 -87 -7 -104
-14z"/>
<path d="M9067 10393 c-4 -3 -7 -1926 -7 -4272 l0 -4265 21 -42 c16 -34 29
-46 66 -60 41 -16 50 -16 86 -3 26 9 50 26 64 48 l23 34 0 4236 c0 4231 0
4236 -20 4269 -11 18 -36 40 -55 48 -35 14 -166 20 -178 7z"/>
<path d="M13340 10382 c-20 -10 -42 -32 -53 -52 -16 -33 -17 -254 -15 -4272
l3 -4237 21 -28 c11 -15 40 -35 62 -43 37 -13 47 -13 84 0 22 8 51 28 62 43
l21 28 3 4290 2 4289 -77 0 c-54 0 -89 -5 -113 -18z"/>
<path d="M20040 6116 l0 -4283 23 -34 c14 -22 38 -39 64 -48 36 -13 45 -13 86
3 37 14 50 26 66 60 l21 42 0 4214 c0 4193 0 4214 -20 4255 -27 56 -69 75
-165 75 l-75 0 0 -4284z"/>
<path d="M5394 9844 c-17 -9 -38 -29 -47 -44 -16 -26 -17 -307 -17 -3730 0
-3442 1 -3704 17 -3730 41 -69 143 -77 201 -15 l32 35 0 3710 0 3710 -33 36
c-26 29 -42 37 -77 40 -29 2 -56 -2 -76 -12z"/>
<path d="M6100 9844 c-14 -9 -34 -28 -45 -42 -20 -27 -20 -43 -20 -3728 0
-3199 2 -3705 14 -3728 20 -36 71 -66 112 -66 43 0 94 31 114 69 13 27 15 408
15 3723 0 3645 0 3693 -20 3725 -35 58 -116 81 -170 47z"/>
<path d="M16362 9840 c-67 -41 -62 281 -62 -3770 0 -4051 -5 -3729 62 -3770
66 -40 155 -13 184 55 21 52 21 7378 0 7430 -18 42 -69 75 -116 75 -19 0 -50
-9 -68 -20z"/>
<path d="M17073 9840 c-18 -10 -39 -33 -48 -49 -13 -27 -15 -408 -15 -3721 0
-3313 2 -3694 15 -3721 19 -37 70 -69 108 -69 40 0 92 27 114 58 17 26 18 174
18 3732 0 3558 -1 3706 -18 3732 -38 55 -118 73 -174 38z"/>
<path d="M4191 8863 c-22 -11 -40 -31 -52 -57 -18 -40 -19 -138 -19 -2736 0
-2601 1 -2696 19 -2736 20 -44 67 -74 119 -74 35 0 92 36 109 70 19 37 19
5443 0 5480 -17 34 -74 70 -111 70 -17 0 -46 -8 -65 -17z"/>
<path d="M7314 8870 c-11 -4 -33 -22 -47 -40 l-27 -32 0 -2729 0 -2729 34 -38
c32 -34 38 -37 91 -37 53 0 59 3 91 37 l34 38 0 2729 0 2728 -21 27 c-38 49
-102 68 -155 46z"/>
<path d="M15163 8860 c-69 -41 -63 206 -63 -2792 0 -2673 0 -2713 20 -2745 22
-36 66 -63 105 -63 39 0 91 27 112 58 17 26 18 141 21 2735 2 2628 2 2710 -17
2751 -31 70 -113 96 -178 56z"/>
<path d="M18272 8860 c-67 -41 -62 183 -62 -2797 0 -2668 0 -2708 20 -2740 53
-87 187 -79 226 12 21 52 21 5419 0 5470 -18 42 -69 75 -116 75 -19 0 -50 -9
-68 -20z"/>
<path d="M1748 8724 c-63 -33 -58 175 -58 -2654 0 -2287 2 -2584 15 -2610 40
-77 170 -80 219 -6 15 23 16 226 16 2616 0 2390 -1 2593 -16 2616 -34 51 -119
70 -176 38z"/>
<path d="M9725 8718 c-59 -46 -55 136 -55 -2648 0 -2784 -4 -2602 55 -2648 54
-43 153 -23 189 38 15 26 16 237 16 2605 0 2831 5 2620 -59 2658 -42 24 -112
22 -146 -5z"/>
<path d="M12715 8718 c-59 -46 -55 136 -55 -2648 0 -2784 -4 -2602 55 -2648
40 -32 114 -30 153 3 16 13 35 37 41 52 8 21 11 694 9 2611 l-3 2584 -37 34
c-32 29 -45 34 -87 34 -34 0 -56 -6 -76 -22z"/>
<path d="M20712 8726 c-13 -7 -32 -26 -43 -42 -19 -28 -19 -76 -19 -2612 0
-2289 2 -2586 15 -2612 47 -90 200 -75 233 24 10 30 12 564 10 2605 -3 2501
-3 2567 -22 2594 -36 53 -120 74 -174 43z"/>
<path d="M2963 7788 c-18 -13 -37 -33 -42 -46 -17 -37 -14 -3320 3 -3350 20
-36 66 -62 113 -62 35 0 49 6 83 38 l40 39 0 1663 0 1662 -39 39 c-33 33 -45
39 -82 39 -30 0 -55 -7 -76 -22z"/>
<path d="M4794 7791 c-68 -42 -64 75 -64 -1724 0 -1572 1 -1623 19 -1664 22
-47 62 -73 114 -73 40 0 96 35 114 70 19 36 19 3304 0 3340 -32 63 -122 88
-183 51z"/>
<path d="M6694 7794 c-16 -8 -38 -28 -47 -43 -16 -27 -17 -145 -17 -1681 0
-1539 1 -1654 17 -1681 41 -70 143 -77 200 -15 l33 36 0 1656 c0 1647 0 1657
-20 1689 -32 52 -105 69 -166 39z"/>
<path d="M8513 7788 c-67 -48 -63 70 -63 -1718 0 -1462 2 -1623 16 -1660 34
-85 142 -107 208 -41 l31 31 3 1665 2 1665 -33 36 c-28 31 -41 37 -83 41 -40
3 -55 0 -81 -19z"/>
<path d="M13943 7790 c-68 -41 -63 93 -63 -1722 0 -1612 0 -1644 20 -1675 53
-87 187 -80 226 12 21 52 21 3278 0 3330 -29 68 -118 95 -183 55z"/>
<path d="M15785 7800 c-11 -4 -31 -20 -45 -35 l-25 -27 -2 -1656 c-2 -1313 0
-1662 10 -1682 7 -13 28 -35 46 -47 59 -40 137 -25 177 34 18 27 19 76 22
1663 3 1815 7 1699 -62 1741 -32 20 -86 24 -121 9z"/>
<path d="M17662 7790 c-66 -41 -62 75 -62 -1720 0 -1795 -4 -1679 62 -1720 41
-26 117 -23 149 6 51 45 49 -32 49 1714 0 1746 2 1669 -49 1714 -32 29 -108
32 -149 6z"/>
<path d="M19493 7790 c-68 -41 -63 93 -63 -1722 0 -1612 0 -1644 20 -1675 49
-80 163 -84 216 -6 18 27 19 74 19 1683 0 1609 -1 1656 -19 1683 -39 57 -114
73 -173 37z"/>
<path d="M1155 7406 c-16 -7 -39 -23 -50 -36 -20 -22 -20 -36 -20 -1300 l0
-1279 29 -30 c55 -57 144 -50 195 15 l21 27 0 1267 0 1267 -21 27 c-41 52 -97
67 -154 42z"/>
<path d="M10350 7402 c-75 -40 -70 59 -70 -1330 0 -1027 2 -1248 14 -1275 37
-91 174 -100 226 -15 20 33 20 47 20 1288 0 1241 0 1255 -20 1288 -21 34 -72
62 -112 62 -13 0 -39 -8 -58 -18z"/>
<path d="M12121 7402 c-19 -10 -43 -34 -53 -53 -17 -33 -18 -87 -16 -1291 l3
-1258 36 -36 c64 -64 163 -52 201 26 17 33 18 115 18 1285 0 1236 0 1250 -20
1283 -21 34 -72 62 -112 62 -13 0 -39 -8 -57 -18z"/>
<path d="M21335 7406 c-16 -7 -39 -23 -50 -36 -20 -22 -20 -38 -23 -1289 l-2
-1268 23 -34 c27 -40 89 -66 132 -55 15 4 43 22 62 41 l33 33 0 1270 0 1269
-21 27 c-41 52 -97 67 -154 42z"/>
<path d="M3600 7182 c-30 -14 -57 -37 -68 -59 -9 -16 -12 -291 -12 -1054 0
-1026 0 -1032 21 -1065 41 -67 143 -71 198 -8 l31 35 0 1039 0 1040 -33 36
c-26 29 -41 37 -77 40 -25 2 -52 0 -60 -4z"/>
<path d="M7914 7175 c-68 -35 -64 39 -64 -1105 0 -955 1 -1034 17 -1061 41
-70 143 -77 200 -15 l33 36 0 1040 0 1040 -33 36 c-39 43 -102 55 -153 29z"/>
<path d="M14553 7170 c-67 -40 -63 27 -63 -1100 0 -1127 -4 -1060 63 -1100 41
-26 93 -25 135 0 65 40 62 -13 62 1101 0 924 -1 1014 -17 1046 -32 68 -115 93
-180 53z"/>
<path d="M18883 7170 c-67 -40 -63 27 -63 -1100 0 -1127 -4 -1060 63 -1100 41
-26 93 -25 135 0 65 40 62 -13 62 1101 0 924 -1 1014 -17 1046 -32 68 -115 93
-180 53z"/>
<path d="M550 6597 c-19 -7 -44 -27 -57 -46 l-23 -34 0 -447 0 -447 23 -34
c65 -97 215 -56 232 64 3 23 5 227 3 452 -3 373 -5 413 -21 438 -34 53 -97 75
-157 54z"/>
<path d="M10964 6591 c-73 -33 -74 -39 -74 -521 0 -460 3 -486 59 -514 67 -34
122 -25 171 29 l25 27 0 456 c0 441 -1 458 -20 484 -19 25 -80 58 -108 58 -6
0 -30 -9 -53 -19z"/>
<path d="M11536 6600 c-37 -12 -66 -38 -82 -77 -18 -41 -20 -855 -3 -900 15
-40 47 -71 86 -84 48 -15 117 11 144 55 18 29 19 55 19 474 0 500 2 489 -73
523 -47 21 -50 21 -91 9z"/>
<path d="M21950 6597 c-20 -7 -44 -27 -57 -46 l-24 -35 3 -457 3 -457 24 -26
c54 -57 145 -54 196 5 l25 31 0 458 0 458 -26 31 c-14 17 -42 35 -62 41 -44
12 -38 12 -82 -3z"/>
</g>
</svg>
